HIERARCHY
ROOT Hips
{
	OFFSET 0.00000 0.00000 0.00000
	CHANNELS 6 Xposition Yposition Zposition Zrotation Yrotation Xrotation 
	JOINT LHipJoint
	{
		OFFSET 0 0 0
		CHANNELS 3 Zrotation Yrotation Xrotation
		JOINT LeftUpLeg
		{
			OFFSET 1.28858 -1.83292 1.03970
			CHANNELS 3 Zrotation Yrotation Xrotation
			JOINT LeftLeg
			{
				OFFSET 2.47846 -6.80952 0.00000
				CHANNELS 3 Zrotation Yrotation Xrotation
				JOINT LeftFoot
				{
					OFFSET 2.75274 -7.56311 0.00000
					CHANNELS 3 Zrotation Yrotation Xrotation
					JOINT LeftToeBase
					{
						OFFSET 0.12848 -0.35301 1.68223
						CHANNELS 3 Zrotation Yrotation Xrotation
						End Site
						{
							OFFSET 0.00000 -0.00000 0.87311
						}
					}
				}
			}
		}
	}
	JOINT RHipJoint
	{
		OFFSET 0 0 0
		CHANNELS 3 Zrotation Yrotation Xrotation
		JOINT RightUpLeg
		{
			OFFSET -1.31183 -1.83292 1.03970
			CHANNELS 3 Zrotation Yrotation Xrotation
			JOINT RightLeg
			{
				OFFSET -2.44740 -6.72417 0.00000
				CHANNELS 3 Zrotation Yrotation Xrotation
				JOINT RightFoot
				{
					OFFSET -2.67343 -7.34519 0.00000
					CHANNELS 3 Zrotation Yrotation Xrotation
					JOINT RightToeBase
					{
						OFFSET -0.16914 -0.46471 1.77626
						CHANNELS 3 Zrotation Yrotation Xrotation
						End Site
						{
							OFFSET -0.00000 -0.00000 0.92777
						}
					}
				}
			}
		}
	}
	JOINT LowerBack
	{
		OFFSET 0 0 0
		CHANNELS 3 Zrotation Yrotation Xrotation
		JOINT Spine
		{
			OFFSET 0.01249 2.14252 0.03842
			CHANNELS 3 Zrotation Yrotation Xrotation
			JOINT Spine1
			{
				OFFSET -0.02957 2.14199 -0.03751
				CHANNELS 3 Zrotation Yrotation Xrotation
				JOINT Neck
				{
					OFFSET 0 0 0
					CHANNELS 3 Zrotation Yrotation Xrotation
					JOINT Neck1
					{
						OFFSET -0.01678 1.65709 -0.05476
						CHANNELS 3 Zrotation Yrotation Xrotation
						JOINT Head
						{
							OFFSET 0.07912 1.58331 -0.11843
							CHANNELS 3 Zrotation Yrotation Xrotation
							End Site
							{
								OFFSET 0.03298 1.73940 -0.04271
							}
						}
					}
				}
				JOINT LeftShoulder
				{
					OFFSET 0 0 0
					CHANNELS 3 Zrotation Yrotation Xrotation
					JOINT LeftArm
					{
						OFFSET 3.39556 1.16496 0.08673
						CHANNELS 3 Zrotation Yrotation Xrotation
						JOINT LeftForeArm
						{
							OFFSET 5.23910 -0.00000 -0.00000
							CHANNELS 3 Zrotation Yrotation Xrotation
							JOINT LeftHand
							{
								OFFSET 3.31467 -0.00000 0.00000
								CHANNELS 3 Zrotation Yrotation Xrotation
								JOINT LeftFingerBase
								{
									OFFSET 0 0 0
									CHANNELS 3 Zrotation Yrotation Xrotation
									JOINT LeftHandIndex1
									{
										OFFSET 0.96590 -0.00000 0.00000
										CHANNELS 3 Zrotation Yrotation Xrotation
										End Site
										{
											OFFSET 0.77873 -0.00000 0.00000
										}
									}
								}
								JOINT LThumb
								{
									OFFSET 0 0 0
									CHANNELS 3 Zrotation Yrotation Xrotation
									End Site
									{
										OFFSET 0.79062 -0.00000 0.79062
									}
								}
							}
						}
					}
				}
				JOINT RightShoulder
				{
					OFFSET 0 0 0
					CHANNELS 3 Zrotation Yrotation Xrotation
					JOINT RightArm
					{
						OFFSET -3.27193 1.31331 0.33940
						CHANNELS 3 Zrotation Yrotation Xrotation
						JOINT RightForeArm
						{
							OFFSET -5.30252 -0.00000 0.00000
							CHANNELS 3 Zrotation Yrotation Xrotation
							JOINT RightHand
							{
								OFFSET -3.67875 -0.00000 0.00000
								CHANNELS 3 Zrotation Yrotation Xrotation
								JOINT RightFingerBase
								{
									OFFSET 0 0 0
									CHANNELS 3 Zrotation Yrotation Xrotation
									JOINT RightHandIndex1
									{
										OFFSET -0.59481 -0.00000 0.00000
										CHANNELS 3 Zrotation Yrotation Xrotation
										End Site
										{
											OFFSET -0.47955 -0.00000 0.00000
										}
									}
								}
								JOINT RThumb
								{
									OFFSET 0 0 0
									CHANNELS 3 Zrotation Yrotation Xrotation
									End Site
									{
										OFFSET -0.48687 -0.00000 0.48687
									}
								}
							}
						}
					}
				}
			}
		}
	}
}
MOTION
Frames: 7
Frame Time: .0083333
12.683 20.5709 9.7257 0 0 0 0 0 0 -21 0 0 0 0 0 0 0 0 0 0 0 0 0 0 21 0 0 0 0 0 0 0 0 0 0 0 0 0 0 0 0 0 0 0 0 0 0 -16 0 0 21 0 0 11 0 0 0 -8 0 0 0 0 0 0 0 0 0 0 0 0 0 0 0 0 0 0 0 0 8 0 0 0 0 0 0 0 0 0 0 0 0 0 0 0 0 0
12.6830 20.5709 9.7257 2.2237 1.3855 3.7483 0.0000 0.0000 0.0000 -14.5299 -7.9892 -16.4011 3.7927 11.8793 35.3065 0.9648 -26.8087 -24.4378 0.0101 -0.6495 -1.7850 0.0000 0.0000 0.0000 16.3928 15.8785 -3.6773 -1.8669 -8.5832 24.5001 -4.7203 -3.6124 -42.4842 -0.3278 -3.6796 10.1769 0.1997 0.0621 -7.9009 -1.4874 0.1421 0.8250 -1.6429 0.0985 5.2993 -6.1115 -8.0541 1.2818 7.0144 -11.1787 6.8039 3.0842 -5.5773 2.8147 -0.0000 0.0000 0.0000 -80.7990 -0.4843 29.6462 13.9610 -22.6790 -2.8131 -0.0000 0.0000 -7.1398 3.5340 -14.3061 -0.8743 -7.1250 0.0000 -0.0000 -16.2129 15.9995 11.5954 -0.0000 0.0000 0.0000 87.5464 -8.2810 11.8476 -12.9115 21.1573 -2.4212 0.0000 -0.0000 -6.6760 -8.6841 -35.7955 5.1050 7.1250 -0.0000 -0.0000 30.7585 -63.4847 -14.4742
12.6816 20.5640 9.7340 2.6593 1.4737 3.5638 0.0000 0.0000 0.0000 -15.0482 -8.0068 -16.0171 3.7469 11.8158 35.0834 0.9580 -26.7828 -24.3875 0.0055 -0.4797 -1.3182 0.0000 0.0000 0.0000 16.0767 16.2430 -3.3597 -1.9059 -8.6673 24.7601 -4.8278 -3.5459 -42.9295 -0.3726 -3.9204 10.8528 -0.3666 0.0426 -7.6528 -1.7224 0.1786 0.7494 -1.5631 0.1028 5.0802 -5.6023 -8.0950 1.0955 6.5382 -11.2103 7.0671 2.8192 -5.5844 2.8672 0.0000 0.0000 0.0000 -80.6815 -0.5533 29.4297 13.8914 -22.5792 -2.7863 -0.0000 0.0000 -6.7326 3.5547 -15.0591 -0.9247 -7.1250 0.0000 -0.0000 -16.1485 15.2747 11.8094 0.0000 0.0000 0.0000 87.7271 -8.5057 12.2253 -12.9842 21.2640 -2.4475 0.0000 -0.0000 -5.2572 -8.3802 -35.9373 4.9414 7.1250 -0.0000 -0.0000 31.2381 -63.5231 -14.7504
12.6884 20.5595 9.7493 2.8273 1.5917 3.4810 0.0000 0.0000 0.0000 -15.2991 -8.0624 -15.8252 3.7396 11.8056 35.0476 0.9982 -26.5675 -24.4862 0.0103 -0.6551 -1.8001 0.0000 0.0000 0.0000 15.8880 16.0282 -3.2398 -1.9047 -8.6648 24.7522 -4.8480 -3.3825 -42.9611 -0.3868 -3.9937 11.0588 -0.6160 -0.0051 -7.5661 -1.8060 0.1390 0.6447 -1.5134 0.0771 4.9205 -5.4525 -8.0180 1.0374 6.3279 -11.0992 7.2240 2.7219 -5.5278 2.8966 0.0000 -0.0000 0.0000 -80.5813 -0.4970 29.7226 13.9245 -22.6266 -2.7990 -0.0000 0.0000 -7.1710 3.8912 -15.3124 -1.0291 -7.1250 0.0000 -0.0000 -15.9113 15.0161 11.7133 0.0000 -0.0000 0.0000 87.7979 -8.7914 12.4581 -13.1278 21.4743 -2.4999 0.0000 -0.0000 -3.5758 -8.0145 -36.1250 4.7451 7.1250 -0.0000 -0.0000 31.8365 -63.5824 -15.1061
12.6910 20.5566 9.7666 2.6007 1.7194 3.4564 0.0000 0.0000 0.0000 -15.0879 -8.2476 -15.6648 3.7329 11.7962 35.0147 0.9488 -26.5559 -24.2157 0.0001 -0.0681 -0.1872 0.0000 0.0000 0.0000 16.1936 16.0893 -3.0772 -1.9062 -8.6679 24.7618 -4.9138 -3.4048 -43.2526 -0.3958 -4.0394 11.1876 -0.4982 -0.0237 -7.7371 -1.7344 0.1029 0.6674 -1.5105 0.0617 5.0399 -5.5717 -7.9606 0.9041 6.3873 -11.0204 7.2304 2.7605 -5.4880 2.9308 -0.0000 0.0000 0.0000 -80.6339 -0.6367 29.8785 13.9935 -22.7254 -2.8256 -0.0000 0.0000 -7.3329 4.2597 -15.5083 -1.1409 -7.1250 0.0000 -0.0000 -15.6575 14.8103 11.5830 -0.0000 0.0000 0.0000 87.9387 -8.8849 12.3836 -13.2301 21.6234 -2.5374 0.0000 -0.0000 -1.4420 -7.5989 -36.3438 4.5205 7.1250 -0.0000 -0.0000 32.5251 -63.6528 -15.5211
12.6948 20.5519 9.7820 2.5590 1.8430 3.3810 0.0000 0.0000 0.0000 -15.0876 -8.3477 -15.5041 3.7376 11.8027 35.0377 0.9135 -26.5644 -24.0305 0.0023 0.3108 0.8539 0.0000 0.0000 0.0000 16.2869 16.0375 -2.8580 -1.8952 -8.6444 24.6891 -4.9498 -3.3992 -43.4053 -0.4058 -4.0898 11.3294 -0.5311 -0.0432 -7.7821 -1.7625 0.0820 0.6619 -1.5238 0.0509 5.0592 -5.4992 -7.9264 0.8381 6.3196 -10.9670 7.2123 2.7247 -5.4601 2.9226 0.0000 -0.0000 0.0000 -80.6182 -0.7211 29.9928 14.0475 -22.8026 -2.8465 -0.0000 0.0000 -7.4510 4.5069 -15.7253 -1.2238 -7.1250 0.0000 -0.0000 -15.4830 14.5889 11.5198 0.0000 -0.0000 0.0000 88.0805 -8.9928 12.4638 -13.2536 21.6576 -2.5461 0.0000 0.0000 0.3159 -7.1779 -36.5813 4.2922 7.1250 -0.0000 -0.0000 33.2441 -63.7353 -15.9663
12.6986 20.5471 9.7979 2.4229 1.9555 3.2989 0.0000 0.0000 0.0000 -14.9795 -8.4219 -15.3767 3.7514 11.8220 35.1053 0.8705 -26.6008 -23.8185 0.0118 0.7006 1.9253 0.0000 0.0000 0.0000 16.4823 15.9532 -2.6193 -1.8764 -8.6037 24.5634 -4.9726 -3.4210 -43.5106 -0.4104 -4.1122 11.3925 -0.4589 -0.0556 -7.8466 -1.7663 0.0603 0.6768 -1.5716 0.0423 5.1109 -5.4415 -7.8885 0.8129 6.3017 -10.9098 7.1152 2.7111 -5.4309 2.8847 -0.0000 0.0000 0.0000 -80.6110 -0.8136 30.1087 14.1077 -22.8885 -2.8699 -0.0000 0.0000 -7.5786 4.7600 -15.8919 -1.3062 -7.1250 0.0000 -0.0000 -15.3081 14.4155 11.4383 -0.0000 0.0000 0.0000 88.2291 -9.0616 12.5871 -13.2431 21.6424 -2.5422 0.0000 0.0000 2.0588 -6.7348 -36.8334 4.0494 7.1250 -0.0000 -0.0000 34.0066 -63.8217 -16.4432
